@startuml
abstract        abstract
abstract class  "abstract class"
annotation      annotation 
circle          circle
()              circle_short_form
class           class
diamond         diamond
<>              diamond_short_form
entity          entity
enum            enum
interface       interface
@enduml


@startuml
Class01 <|-- Class02
Class03 *-- Class04
Class05 o-- Class06
Class07 .. Class08
Class09 -- Class10
@enduml



@startuml
Class11 <|.. Class12
Class13 -->  Class14
Class15 ..> Class16
Class17 ..|> Class18
Class19 <--* Class20
@enduml



@startuml
Class21 #-- Class22
Class23 x-- Class24
Class24 }-- Class26
Class27 +-- Class28
Class29 ^-- Class30
@enduml



@startuml

Class01 "К одному" *-- "от многих" Class02 : Композиция

Class03 o-- Class04 : Агрегация

Class05 --> "1" Class06 

@enduml



@startuml
class Машина

Водитель - Машина: ведет >
Машина *- Колесо: имеет 4 >
Машина -- Персонаж: < владеет

@enduml



@startuml
Object <|-- ArrayList

Object : equals()
ArrayList : Object[] elementData
ArrayList : size()

@enduml



@startuml
class Dummy {
    String data
    void methods()
}

class Flight {
    flightNumber : Integer
    departureTime : Date
}
@enduml



@startuml

class Dummy {
    -field1
    #field2
    ~method1()
    +method2()
}
@enduml



@startuml
class Dummy {
    {static} String id
    {abstract} void methods()
}
@enduml




@startuml
class Object << general >>
Object <|--- ArrayList

note top of Object : In Java, every class\nextends this one.

note "Это не привязаная\n ни к чему заметка" as N1
note "Эта заметка привязана\nсразу к нескольким классам" as N2
Object .. N2
N2 .. ArrayList

class Foo
note left: Эта заметка будет\nпривязяна к последнему\nпопредельнному классу

@enduml



@startuml
class A {
    {static} int counter
    +void {abstract} start(int timeout)
}
note right of A::counter
    Это поле данных прокомментировано
end note
note right of A::start
    Этот метод теперь объясняется в UML заметке
end note
@enduml




@startuml

class Dummy
Dummy --> Foo : Одна связь
note on link #red: Помни, оно - красное!

Dummy --> Foo2 : Другая связь
note right on link #LightBlue
Это моя заметка, чтобы
не забыть где правильная связь.
И еще, она - почти синяя
end note

@enduml




@startuml

abstract class AbstractList
abstract AbstractCollection
interface List
interface Collection

List <|-- AbstractList
Collection <|-- AbstractCollection

Collection <|- List
AbstractCollection <|- ArrayList
AbstractList <|-- ArrayList

class ArrayList {
    Object[] elementData
    size()
}

enum TimeUnit {
    DAYS
    HOURS
    MINUTES
}

annotation SuppressWarnings

annotation Anotation {
    annotation with members
    String foo()
    String bar()
}

@enduml


@startuml

package "Classic Collections" #DDDDDD {
    Object <|-- ArrayList
}

package net.sourceforge.plantuml {
    Object <|-- Demo1
    Demo1 *- Demo2
}

@enduml




@startuml
scale 750 Width
package foo1 <<Node>> {
    class Class1
}

package foo2 <<Rectangle>> {
    class Class2 
}
package foo3 <<Folder>> {
    class Class3 
}
package foo4 <<Frame>> {
    class Class4
}
package foo5 <<Cloud>> {
    class Class5
}
package foo6 <<Database>> {
    class Class6 
}

@enduml



@startuml
Пользователь -left-> Лево
Пользователь -right-> Право
Пользователь -up-> Верх
Пользователь -down-> низ
@enduml




@startuml
left to right direction
Пользователь -left-> Лево
Пользователь -right-> Право
Пользователь -up-> Верх
Пользователь -down-> низ
@enduml



@startuml

' задаем параметры для всех классов по умолчанию
skinparam class {
    'задаем светлозеленый цвет для фона классов по умолчанию
    BackgroundColor LightGreen
    'задаем синий цвет для связи классов по умолчанию
    ArrowColor Blue
    'задаем красный цвет для контуров классов по умолчанию
    BorderColor Red
}

'задаем цвет кружочкой внутри элементов по умолчанию
skinparam StereotypeCBackgroundColor Mageta

Class01 "К одному" *-- "от многих" Class02 : Композиция

Class03 o-- Class04 : Агрегация

@enduml



@startuml
' задаем параметры для всех классов по умолчанию
skinparam class {
    'задаем светлозеленый цвет для фона классов по умолчанию
    BackgroundColor LightGreen
    'задаем синий цвет для связи классов по умолчанию
    ArrowColor Blue
    'задаем красный цвет для контуров классов по умолчанию
    BorderColor Red
    'задаем зеленый цвет для фона классов, для которых шаблоном является Foo
    BackgroundColor<<Foo>> Green
    'задаем оранжевый цвет для контуров классов, для которых шаблоном является Foo
    BorderColor<<Foo>> Orange
}

'задаем розовый цвет кружочков внутри элементов по умолчанию
skinparam StereotypeCBackgroundColor Magenta
'задаем серый цвет крухочков внутри элементов, для которых шаблоном является Foo
skinparam StereotypeCBackgroundColor<< Foo>> Gray

Class01 <<Foo>>
Class03 <<Foo>>

Class01 "К одному" *-- "от многих" Class02 : Композиция

Class03 o-- Class04 : Агрегация

@enduml



@startuml

skinparam BackgroundColor AntiqueWhite/Gold
skinparam ClassBackgroundColor Wheat|CornflowerBlue

class Foo #red-LightGreen
note left of Foo #LightBlue\9932CC
    Это моя заметка
    об этом классе
end note

package Пример #GreenYellow/LightGoldenRodYellow {
    class Заглушка
}

@enduml




@startuml
class ArrayList implements List
class ArrayList extends AbstractList
@enduml




@startuml
title Синтаксис квадратных скобочек без меток
class Foo
class bar
bar1 : [bold]
bar2 : [dashed]
bar3 : [dotted]
bar4 : [hidden]
bar5 : [plain]

foo --> bar
foo -[bold]-> bar1
foo -[dashed]-> bar2
foo -[dotted]-> bar3
foo -[hidden]-> bar4
foo -[plain]-> bar5
@enduml



@startuml
title Синтаксис квадратных скобочек с заметками
class Foo
class bar
bar1 : [bold]
bar2 : [dashed]
bar3 : [dotted]
bar4 : [hidden]
bar5 : [plain]

foo --> bar         : по умолчанию
foo -[bold]-> bar1  : [жирный]
foo -[dashed]-> bar2    : [штриховой]
foo -[dotted]-> bar3    : [пунктирный]
foo -[hidden]-> bar4   : [скрытый] 
foo -[plain]-> bar5     : [непрерывный]

@enduml




@startuml
title Задание цвета при помощи синтаксиса квадратных скобочек
class foo
class bar
bar1 : [#red]
bar2 : [#green]
bar3 : [#blue]

foo --> bar     : обычный
foo -[#red] bar1 : [красный]
foo -[#green]-> bar2 : [зеленый]
foo -[#blue]-> bar3 : [синий]
@enduml



@startuml
title Задание толщины при помощи синтаксиса квадратных скобочек
class foo
class bar
bar1 : [thickness=1]
bar2 : [thickness=2]
bar3 : [thickness=4]
bar4 : [thickness=8]
bar5 : [thickness=16]

foo --> bar                  : обычный 
foo -[thickness=1]->  bar1   : [1]
foo -[thickness=2]->  bar2   : [2]
foo -[thickness=4]->  bar3   : [4]
foo -[thickness=8]->  bar4   : [8]
foo -[thickness=16]-> bar5   : [16]

@enduml




@startuml
class foo
foo --> bar : обычная
foo --> bar1 #line:red;line.bold;text:red  : красная, жирный
foo --> bar2 #green;line.dashed;text:green : зеленая, штриховой
foo --> bar3 #blue;line.dotted;text:blue   : синяя, пунктирный
@enduml



@startuml
class Foo {
    +field1
    +field2
}

class Bar {
    +field3
    +field4
}

Foo::field1 --> Bar::field3 : foo
Foo::field2 --> Bar::field4 : bar
@enduml




@startuml
skinparam groupInheritance 1

A1 <|-- B1

A2 <|-- B2
A2 <|-- C2

A3 <|-- B3
A3 <|-- C3
A3 <|-- D3

A4 <|-- b4
A4 <|-- C4
A4 <|-- D4
A4 <|-- E4
@enduml



@startuml
skinparam groupInheritance 4

A1 <|-- B1

A2 <|-- B2
A2 <|-- C2

A3 <|-- B3
A3 <|-- C3
A3 <|-- D3

A4 <|-- b4
A4 <|-- C4
A4 <|-- D4
A4 <|-- E4
@enduml